<svg width="375" height="750" viewBox="0 0 375 750" fill="none" xmlns="http://www.w3.org/2000/svg">
<g clip-path="url(#clip0_0_1149)">
<rect width="375" height="750" fill="white"/>
<g filter="url(#filter0_d_0_1149)">
<rect width="375" height="750" rx="8" fill="white"/>
</g>
<ellipse cx="88.1891" cy="294.815" rx="53.1891" ry="54.8152" fill="#B1B4C5"/>
<ellipse cx="88.1891" cy="292.385" rx="53.1891" ry="52.385" fill="url(#paint0_linear_0_1149)"/>
<ellipse cx="88.189" cy="293.465" rx="40.8321" ry="41.0439" fill="#E1E4ED"/>
<path d="M104.053 282.839C103.752 282.723 103.439 282.672 103.15 282.693C102.732 282.722 102.395 282.893 102.195 283.174C101.017 284.839 100.053 287.984 99.2756 290.511C98.9187 291.679 98.4396 293.243 98.0927 293.985C97.7308 291.906 98.1395 284.289 98.2981 281.355L98.3007 281.308C98.4106 279.27 98.4254 278.912 98.4013 278.755C98.2266 277.637 97.7829 276.904 97.0819 276.575C96.3732 276.242 95.4528 276.389 94.4614 276.992C93.9643 277.295 93.8268 278.337 93.4001 283.059L93.3986 283.08C93.1636 285.674 92.6229 291.647 91.9574 292.642C91.2066 291.25 90.1736 283.343 89.7278 279.92C89.4157 277.523 89.234 276.146 89.1119 275.731C88.8547 274.86 87.7689 274.119 86.6939 274.078C85.799 274.033 85.0648 274.492 84.7144 275.291C84.0588 276.028 84.2904 278.47 85.015 284.256C85.36 287.009 86.0719 292.696 85.6239 293.334C84.7305 293.236 83.1967 289.674 81.0647 282.743C80.4665 280.802 80.2814 280.218 80.0976 279.962C79.7355 279.072 78.5046 278.386 77.4011 278.463C77.3068 278.47 77.2152 278.482 77.1247 278.5C76.547 278.615 75.2288 279.152 75.5098 281.63C76.2882 285.065 77.1337 287.587 77.9543 290.034L77.9709 290.083C78.4619 291.549 78.926 292.935 79.3573 294.472C80.3738 298.102 79.9785 300.354 79.9737 300.379C79.9399 300.611 79.869 300.753 79.7624 300.802C79.724 300.82 79.6749 300.831 79.6194 300.835C79.2973 300.858 78.8141 300.642 78.565 300.502C77.9962 299.404 75.164 294.173 72.5976 293.447L72.5054 293.42L72.4121 293.429C71.4709 293.518 70.7788 293.878 70.3558 294.496C69.6855 295.474 69.963 296.72 70.0303 296.97L70.0681 297.059C70.0891 297.097 72.1471 300.885 72.4657 302.647C72.7403 304.158 74.1614 305.796 75.3039 307.111L75.351 307.165C75.7237 307.595 76.0453 307.967 76.299 308.312C79.6141 311.803 84.8569 314.739 84.8996 314.763C85.5538 315.25 85.9175 315.721 85.9559 316.127C85.9802 316.392 85.8437 316.551 85.839 316.556L85.7248 316.676L86.4495 317.387L100.281 316.406L100.871 313.678C102.695 305.972 102.314 299.402 102.308 299.358C102.314 299.117 102.826 296.779 103.237 294.89L103.249 294.842C104.068 291.08 105.087 286.398 105.282 284.617C105.367 283.856 104.885 283.156 104.053 282.839Z" fill="#8A90AC"/>
<ellipse cx="284.686" cy="294.815" rx="53.6862" ry="54.8152" fill="#B1B4C5"/>
<ellipse cx="284.686" cy="292.385" rx="53.6862" ry="52.385" fill="url(#paint1_linear_0_1149)"/>
<ellipse cx="284.686" cy="293.465" rx="41.2137" ry="41.0439" fill="#E1E4ED"/>
<path d="M273.927 293.114L278.379 286.88C276.529 286.573 273.131 286.505 270.347 289.277C265.96 293.646 264.183 303.085 263.813 305.37L274.963 316.475C276.971 316.304 285.859 315.122 294.422 306.593C294.513 306.409 296.599 304.874 294.894 303.175C294.08 302.365 292.732 302.38 291.901 303.208C291.477 303.63 290.819 303.636 290.404 303.223C289.989 302.81 289.996 302.154 290.419 301.733L293.445 298.719C294.983 297.187 293.533 294.604 291.387 295.224L288.909 297.337C288.457 297.729 287.785 297.661 287.413 297.233C287.028 296.79 287.111 296.119 287.548 295.742C296.202 288.18 294.939 289.091 300.506 283.893C302.587 282.169 299.97 279.117 297.92 280.864L284.451 292.927C284.059 293.259 283.458 293.265 283.073 292.911C282.628 292.529 282.618 291.977 282.909 291.542L292.303 276.996C293.677 275.144 290.974 273.087 289.528 274.954L275.637 294.302C275.302 294.784 274.626 294.895 274.166 294.558C273.705 294.249 273.579 293.58 273.927 293.114Z" fill="#8A90AC"/>
<ellipse cx="186.686" cy="454.815" rx="53.6862" ry="54.8152" fill="#B1B4C5"/>
<ellipse cx="186.686" cy="452.385" rx="53.6862" ry="52.385" fill="url(#paint2_linear_0_1149)"/>
<ellipse cx="186.686" cy="453.465" rx="41.2137" ry="41.0439" fill="#E1E4ED"/>
<path d="M202.652 447.57C202.177 441.574 195.444 442.186 195.444 442.186C192.602 437.175 188.163 440.805 188.163 440.805C184.752 435.894 180.476 440.445 180.476 440.445C173.104 439.649 173.389 445.679 173.389 445.679C173.216 447.596 174.428 453.526 174.428 453.526C173.335 450.108 170.962 452.945 170.962 452.945C168.046 457.447 170.241 459.912 170.241 459.912C174.188 464.539 182.598 470.092 182.598 470.092C185.644 471.837 184.355 473.393 184.355 473.393L202.776 470.348L203.199 466.854C205.999 458.382 202.652 447.57 202.652 447.57Z" fill="#8A90AC"/>
<path d="M175.617 267.478C175.617 268.301 175.348 268.93 174.811 269.363C174.282 269.788 173.598 270 172.757 270H169.845C169.802 270 169.763 269.987 169.728 269.961C169.702 269.926 169.689 269.887 169.689 269.844V261.056C169.689 261.013 169.702 260.978 169.728 260.952C169.763 260.917 169.802 260.9 169.845 260.9H172.562C173.489 260.9 174.209 261.108 174.72 261.524C175.231 261.931 175.487 262.555 175.487 263.396C175.487 264.254 175.153 264.874 174.486 265.255C174.443 265.281 174.438 265.307 174.473 265.333C175.236 265.766 175.617 266.481 175.617 267.478ZM171.587 262.473C171.544 262.473 171.522 262.495 171.522 262.538V264.579C171.522 264.622 171.544 264.644 171.587 264.644H172.575C172.922 264.644 173.195 264.549 173.394 264.358C173.593 264.167 173.693 263.903 173.693 263.565C173.693 263.218 173.593 262.95 173.394 262.759C173.203 262.568 172.93 262.473 172.575 262.473H171.587ZM172.679 268.414C173.026 268.414 173.294 268.314 173.485 268.115C173.684 267.907 173.784 267.617 173.784 267.244C173.784 266.871 173.684 266.581 173.485 266.373C173.294 266.156 173.026 266.048 172.679 266.048H171.587C171.544 266.048 171.522 266.07 171.522 266.113V268.349C171.522 268.392 171.544 268.414 171.587 268.414H172.679ZM182.298 262.317C182.298 262.36 182.281 262.399 182.246 262.434C182.22 262.46 182.186 262.473 182.142 262.473H178.658C178.615 262.473 178.593 262.495 178.593 262.538V264.566C178.593 264.609 178.615 264.631 178.658 264.631H180.829C180.873 264.631 180.907 264.648 180.933 264.683C180.968 264.709 180.985 264.744 180.985 264.787V266.048C180.985 266.091 180.968 266.13 180.933 266.165C180.907 266.191 180.873 266.204 180.829 266.204H178.658C178.615 266.204 178.593 266.226 178.593 266.269V268.362C178.593 268.405 178.615 268.427 178.658 268.427H182.142C182.186 268.427 182.22 268.444 182.246 268.479C182.281 268.505 182.298 268.54 182.298 268.583V269.844C182.298 269.887 182.281 269.926 182.246 269.961C182.22 269.987 182.186 270 182.142 270H176.916C176.873 270 176.834 269.987 176.799 269.961C176.773 269.926 176.76 269.887 176.76 269.844V261.056C176.76 261.013 176.773 260.978 176.799 260.952C176.834 260.917 176.873 260.9 176.916 260.9H182.142C182.186 260.9 182.22 260.917 182.246 260.952C182.281 260.978 182.298 261.013 182.298 261.056V262.317ZM188.312 270C188.216 270 188.156 269.957 188.13 269.87L187.831 268.596C187.822 268.561 187.8 268.544 187.766 268.544H185.335C185.3 268.544 185.278 268.561 185.27 268.596L184.971 269.87C184.945 269.957 184.888 270 184.802 270H183.229C183.116 270 183.073 269.944 183.099 269.831L185.439 261.03C185.465 260.943 185.525 260.9 185.621 260.9H187.506C187.601 260.9 187.662 260.943 187.688 261.03L190.028 269.831L190.041 269.883C190.041 269.961 189.993 270 189.898 270H188.312ZM185.621 267.049C185.612 267.075 185.616 267.097 185.634 267.114C185.651 267.123 185.668 267.127 185.686 267.127H187.402C187.419 267.127 187.436 267.123 187.454 267.114C187.471 267.097 187.475 267.075 187.467 267.049L186.57 263.279C186.561 263.244 186.548 263.227 186.531 263.227C186.513 263.227 186.5 263.244 186.492 263.279L185.621 267.049ZM195.707 260.9C195.751 260.9 195.785 260.917 195.811 260.952C195.846 260.978 195.863 261.013 195.863 261.056V262.33C195.863 262.373 195.846 262.412 195.811 262.447C195.785 262.473 195.751 262.486 195.707 262.486H193.731C193.688 262.486 193.666 262.508 193.666 262.551V269.844C193.666 269.887 193.649 269.926 193.614 269.961C193.588 269.987 193.554 270 193.51 270H191.989C191.946 270 191.907 269.987 191.872 269.961C191.846 269.926 191.833 269.887 191.833 269.844V262.551C191.833 262.508 191.812 262.486 191.768 262.486H189.857C189.814 262.486 189.775 262.473 189.74 262.447C189.714 262.412 189.701 262.373 189.701 262.33V261.056C189.701 261.013 189.714 260.978 189.74 260.952C189.775 260.917 189.814 260.9 189.857 260.9H195.707ZM199.587 270.104C198.989 270.104 198.465 270 198.014 269.792C197.563 269.575 197.212 269.276 196.961 268.895C196.718 268.505 196.597 268.059 196.597 267.556V267.218C196.597 267.175 196.61 267.14 196.636 267.114C196.671 267.079 196.71 267.062 196.753 267.062H198.248C198.291 267.062 198.326 267.079 198.352 267.114C198.387 267.14 198.404 267.175 198.404 267.218V267.465C198.404 267.768 198.517 268.024 198.742 268.232C198.967 268.431 199.271 268.531 199.652 268.531C199.99 268.531 200.246 268.444 200.419 268.271C200.601 268.098 200.692 267.877 200.692 267.608C200.692 267.409 200.636 267.24 200.523 267.101C200.41 266.954 200.25 266.819 200.042 266.698C199.843 266.568 199.531 266.395 199.106 266.178C198.586 265.918 198.161 265.675 197.832 265.45C197.503 265.225 197.221 264.934 196.987 264.579C196.753 264.224 196.636 263.795 196.636 263.292C196.636 262.789 196.753 262.352 196.987 261.979C197.23 261.598 197.568 261.307 198.001 261.108C198.434 260.9 198.928 260.796 199.483 260.796C200.064 260.796 200.579 260.909 201.03 261.134C201.481 261.351 201.832 261.658 202.083 262.057C202.334 262.456 202.46 262.915 202.46 263.435V263.695C202.46 263.738 202.443 263.777 202.408 263.812C202.382 263.838 202.347 263.851 202.304 263.851H200.809C200.766 263.851 200.727 263.838 200.692 263.812C200.666 263.777 200.653 263.738 200.653 263.695V263.461C200.653 263.149 200.545 262.889 200.328 262.681C200.111 262.473 199.817 262.369 199.444 262.369C199.132 262.369 198.885 262.451 198.703 262.616C198.53 262.772 198.443 262.993 198.443 263.279C198.443 263.478 198.495 263.652 198.599 263.799C198.703 263.946 198.863 264.089 199.08 264.228C199.297 264.358 199.626 264.531 200.068 264.748L200.341 264.904C200.844 265.181 201.234 265.424 201.511 265.632C201.797 265.831 202.035 266.087 202.226 266.399C202.417 266.711 202.512 267.088 202.512 267.53C202.512 268.319 202.243 268.947 201.706 269.415C201.177 269.874 200.471 270.104 199.587 270.104Z" fill="#B1B4C5"/>
<path d="M81.617 383.478C81.617 384.301 81.3483 384.93 80.811 385.363C80.2823 385.788 79.5977 386 78.757 386H75.845C75.8017 386 75.7627 385.987 75.728 385.961C75.702 385.926 75.689 385.887 75.689 385.844V377.056C75.689 377.013 75.702 376.978 75.728 376.952C75.7627 376.917 75.8017 376.9 75.845 376.9H78.562C79.4893 376.9 80.2087 377.108 80.72 377.524C81.2313 377.931 81.487 378.555 81.487 379.396C81.487 380.254 81.1533 380.874 80.486 381.255C80.4427 381.281 80.4383 381.307 80.473 381.333C81.2357 381.766 81.617 382.481 81.617 383.478ZM77.587 378.473C77.5437 378.473 77.522 378.495 77.522 378.538V380.579C77.522 380.622 77.5437 380.644 77.587 380.644H78.575C78.9217 380.644 79.1947 380.549 79.394 380.358C79.5933 380.167 79.693 379.903 79.693 379.565C79.693 379.218 79.5933 378.95 79.394 378.759C79.2033 378.568 78.9303 378.473 78.575 378.473H77.587ZM78.679 384.414C79.0257 384.414 79.2943 384.314 79.485 384.115C79.6843 383.907 79.784 383.617 79.784 383.244C79.784 382.871 79.6843 382.581 79.485 382.373C79.2943 382.156 79.0257 382.048 78.679 382.048H77.587C77.5437 382.048 77.522 382.07 77.522 382.113V384.349C77.522 384.392 77.5437 384.414 77.587 384.414H78.679ZM88.2983 378.317C88.2983 378.36 88.281 378.399 88.2463 378.434C88.2203 378.46 88.1856 378.473 88.1423 378.473H84.6583C84.615 378.473 84.5933 378.495 84.5933 378.538V380.566C84.5933 380.609 84.615 380.631 84.6583 380.631H86.8293C86.8726 380.631 86.9073 380.648 86.9333 380.683C86.968 380.709 86.9853 380.744 86.9853 380.787V382.048C86.9853 382.091 86.968 382.13 86.9333 382.165C86.9073 382.191 86.8726 382.204 86.8293 382.204H84.6583C84.615 382.204 84.5933 382.226 84.5933 382.269V384.362C84.5933 384.405 84.615 384.427 84.6583 384.427H88.1423C88.1856 384.427 88.2203 384.444 88.2463 384.479C88.281 384.505 88.2983 384.54 88.2983 384.583V385.844C88.2983 385.887 88.281 385.926 88.2463 385.961C88.2203 385.987 88.1856 386 88.1423 386H82.9163C82.873 386 82.834 385.987 82.7993 385.961C82.7733 385.926 82.7603 385.887 82.7603 385.844V377.056C82.7603 377.013 82.7733 376.978 82.7993 376.952C82.834 376.917 82.873 376.9 82.9163 376.9H88.1423C88.1856 376.9 88.2203 376.917 88.2463 376.952C88.281 376.978 88.2983 377.013 88.2983 377.056V378.317ZM94.3115 386C94.2162 386 94.1555 385.957 94.1295 385.87L93.8305 384.596C93.8218 384.561 93.8002 384.544 93.7655 384.544H91.3345C91.2998 384.544 91.2782 384.561 91.2695 384.596L90.9705 385.87C90.9445 385.957 90.8882 386 90.8015 386H89.2285C89.1158 386 89.0725 385.944 89.0985 385.831L91.4385 377.03C91.4645 376.943 91.5252 376.9 91.6205 376.9H93.5055C93.6008 376.9 93.6615 376.943 93.6875 377.03L96.0275 385.831L96.0405 385.883C96.0405 385.961 95.9928 386 95.8975 386H94.3115ZM91.6205 383.049C91.6118 383.075 91.6162 383.097 91.6335 383.114C91.6508 383.123 91.6682 383.127 91.6855 383.127H93.4015C93.4188 383.127 93.4362 383.123 93.4535 383.114C93.4708 383.097 93.4752 383.075 93.4665 383.049L92.5695 379.279C92.5608 379.244 92.5478 379.227 92.5305 379.227C92.5132 379.227 92.5002 379.244 92.4915 379.279L91.6205 383.049ZM101.707 376.9C101.751 376.9 101.785 376.917 101.811 376.952C101.846 376.978 101.863 377.013 101.863 377.056V378.33C101.863 378.373 101.846 378.412 101.811 378.447C101.785 378.473 101.751 378.486 101.707 378.486H99.7313C99.6879 378.486 99.6663 378.508 99.6663 378.551V385.844C99.6663 385.887 99.6489 385.926 99.6143 385.961C99.5883 385.987 99.5536 386 99.5103 386H97.9893C97.9459 386 97.9069 385.987 97.8723 385.961C97.8463 385.926 97.8333 385.887 97.8333 385.844V378.551C97.8333 378.508 97.8116 378.486 97.7683 378.486H95.8573C95.8139 378.486 95.7749 378.473 95.7403 378.447C95.7143 378.412 95.7013 378.373 95.7013 378.33V377.056C95.7013 377.013 95.7143 376.978 95.7403 376.952C95.7749 376.917 95.8139 376.9 95.8573 376.9H101.707ZM105.587 386.104C104.989 386.104 104.465 386 104.014 385.792C103.563 385.575 103.212 385.276 102.961 384.895C102.718 384.505 102.597 384.059 102.597 383.556V383.218C102.597 383.175 102.61 383.14 102.636 383.114C102.671 383.079 102.71 383.062 102.753 383.062H104.248C104.291 383.062 104.326 383.079 104.352 383.114C104.387 383.14 104.404 383.175 104.404 383.218V383.465C104.404 383.768 104.517 384.024 104.742 384.232C104.967 384.431 105.271 384.531 105.652 384.531C105.99 384.531 106.246 384.444 106.419 384.271C106.601 384.098 106.692 383.877 106.692 383.608C106.692 383.409 106.636 383.24 106.523 383.101C106.41 382.954 106.25 382.819 106.042 382.698C105.843 382.568 105.531 382.395 105.106 382.178C104.586 381.918 104.161 381.675 103.832 381.45C103.503 381.225 103.221 380.934 102.987 380.579C102.753 380.224 102.636 379.795 102.636 379.292C102.636 378.789 102.753 378.352 102.987 377.979C103.23 377.598 103.568 377.307 104.001 377.108C104.434 376.9 104.928 376.796 105.483 376.796C106.064 376.796 106.579 376.909 107.03 377.134C107.481 377.351 107.832 377.658 108.083 378.057C108.334 378.456 108.46 378.915 108.46 379.435V379.695C108.46 379.738 108.443 379.777 108.408 379.812C108.382 379.838 108.347 379.851 108.304 379.851H106.809C106.766 379.851 106.727 379.838 106.692 379.812C106.666 379.777 106.653 379.738 106.653 379.695V379.461C106.653 379.149 106.545 378.889 106.328 378.681C106.111 378.473 105.817 378.369 105.444 378.369C105.132 378.369 104.885 378.451 104.703 378.616C104.53 378.772 104.443 378.993 104.443 379.279C104.443 379.478 104.495 379.652 104.599 379.799C104.703 379.946 104.863 380.089 105.08 380.228C105.297 380.358 105.626 380.531 106.068 380.748L106.341 380.904C106.844 381.181 107.234 381.424 107.511 381.632C107.797 381.831 108.035 382.087 108.226 382.399C108.417 382.711 108.512 383.088 108.512 383.53C108.512 384.319 108.243 384.947 107.706 385.415C107.177 385.874 106.471 386.104 105.587 386.104Z" fill="#B1B4C5"/>
<path d="M276.617 383.478C276.617 384.301 276.348 384.93 275.811 385.363C275.282 385.788 274.598 386 273.757 386H270.845C270.802 386 270.763 385.987 270.728 385.961C270.702 385.926 270.689 385.887 270.689 385.844V377.056C270.689 377.013 270.702 376.978 270.728 376.952C270.763 376.917 270.802 376.9 270.845 376.9H273.562C274.489 376.9 275.209 377.108 275.72 377.524C276.231 377.931 276.487 378.555 276.487 379.396C276.487 380.254 276.153 380.874 275.486 381.255C275.443 381.281 275.438 381.307 275.473 381.333C276.236 381.766 276.617 382.481 276.617 383.478ZM272.587 378.473C272.544 378.473 272.522 378.495 272.522 378.538V380.579C272.522 380.622 272.544 380.644 272.587 380.644H273.575C273.922 380.644 274.195 380.549 274.394 380.358C274.593 380.167 274.693 379.903 274.693 379.565C274.693 379.218 274.593 378.95 274.394 378.759C274.203 378.568 273.93 378.473 273.575 378.473H272.587ZM273.679 384.414C274.026 384.414 274.294 384.314 274.485 384.115C274.684 383.907 274.784 383.617 274.784 383.244C274.784 382.871 274.684 382.581 274.485 382.373C274.294 382.156 274.026 382.048 273.679 382.048H272.587C272.544 382.048 272.522 382.07 272.522 382.113V384.349C272.522 384.392 272.544 384.414 272.587 384.414H273.679ZM283.298 378.317C283.298 378.36 283.281 378.399 283.246 378.434C283.22 378.46 283.186 378.473 283.142 378.473H279.658C279.615 378.473 279.593 378.495 279.593 378.538V380.566C279.593 380.609 279.615 380.631 279.658 380.631H281.829C281.873 380.631 281.907 380.648 281.933 380.683C281.968 380.709 281.985 380.744 281.985 380.787V382.048C281.985 382.091 281.968 382.13 281.933 382.165C281.907 382.191 281.873 382.204 281.829 382.204H279.658C279.615 382.204 279.593 382.226 279.593 382.269V384.362C279.593 384.405 279.615 384.427 279.658 384.427H283.142C283.186 384.427 283.22 384.444 283.246 384.479C283.281 384.505 283.298 384.54 283.298 384.583V385.844C283.298 385.887 283.281 385.926 283.246 385.961C283.22 385.987 283.186 386 283.142 386H277.916C277.873 386 277.834 385.987 277.799 385.961C277.773 385.926 277.76 385.887 277.76 385.844V377.056C277.76 377.013 277.773 376.978 277.799 376.952C277.834 376.917 277.873 376.9 277.916 376.9H283.142C283.186 376.9 283.22 376.917 283.246 376.952C283.281 376.978 283.298 377.013 283.298 377.056V378.317ZM289.312 386C289.216 386 289.156 385.957 289.13 385.87L288.831 384.596C288.822 384.561 288.8 384.544 288.766 384.544H286.335C286.3 384.544 286.278 384.561 286.27 384.596L285.971 385.87C285.945 385.957 285.888 386 285.802 386H284.229C284.116 386 284.073 385.944 284.099 385.831L286.439 377.03C286.465 376.943 286.525 376.9 286.621 376.9H288.506C288.601 376.9 288.662 376.943 288.688 377.03L291.028 385.831L291.041 385.883C291.041 385.961 290.993 386 290.898 386H289.312ZM286.621 383.049C286.612 383.075 286.616 383.097 286.634 383.114C286.651 383.123 286.668 383.127 286.686 383.127H288.402C288.419 383.127 288.436 383.123 288.454 383.114C288.471 383.097 288.475 383.075 288.467 383.049L287.57 379.279C287.561 379.244 287.548 379.227 287.531 379.227C287.513 379.227 287.5 379.244 287.492 379.279L286.621 383.049ZM296.707 376.9C296.751 376.9 296.785 376.917 296.811 376.952C296.846 376.978 296.863 377.013 296.863 377.056V378.33C296.863 378.373 296.846 378.412 296.811 378.447C296.785 378.473 296.751 378.486 296.707 378.486H294.731C294.688 378.486 294.666 378.508 294.666 378.551V385.844C294.666 385.887 294.649 385.926 294.614 385.961C294.588 385.987 294.554 386 294.51 386H292.989C292.946 386 292.907 385.987 292.872 385.961C292.846 385.926 292.833 385.887 292.833 385.844V378.551C292.833 378.508 292.812 378.486 292.768 378.486H290.857C290.814 378.486 290.775 378.473 290.74 378.447C290.714 378.412 290.701 378.373 290.701 378.33V377.056C290.701 377.013 290.714 376.978 290.74 376.952C290.775 376.917 290.814 376.9 290.857 376.9H296.707ZM300.587 386.104C299.989 386.104 299.465 386 299.014 385.792C298.563 385.575 298.212 385.276 297.961 384.895C297.718 384.505 297.597 384.059 297.597 383.556V383.218C297.597 383.175 297.61 383.14 297.636 383.114C297.671 383.079 297.71 383.062 297.753 383.062H299.248C299.291 383.062 299.326 383.079 299.352 383.114C299.387 383.14 299.404 383.175 299.404 383.218V383.465C299.404 383.768 299.517 384.024 299.742 384.232C299.967 384.431 300.271 384.531 300.652 384.531C300.99 384.531 301.246 384.444 301.419 384.271C301.601 384.098 301.692 383.877 301.692 383.608C301.692 383.409 301.636 383.24 301.523 383.101C301.41 382.954 301.25 382.819 301.042 382.698C300.843 382.568 300.531 382.395 300.106 382.178C299.586 381.918 299.161 381.675 298.832 381.45C298.503 381.225 298.221 380.934 297.987 380.579C297.753 380.224 297.636 379.795 297.636 379.292C297.636 378.789 297.753 378.352 297.987 377.979C298.23 377.598 298.568 377.307 299.001 377.108C299.434 376.9 299.928 376.796 300.483 376.796C301.064 376.796 301.579 376.909 302.03 377.134C302.481 377.351 302.832 377.658 303.083 378.057C303.334 378.456 303.46 378.915 303.46 379.435V379.695C303.46 379.738 303.443 379.777 303.408 379.812C303.382 379.838 303.347 379.851 303.304 379.851H301.809C301.766 379.851 301.727 379.838 301.692 379.812C301.666 379.777 301.653 379.738 301.653 379.695V379.461C301.653 379.149 301.545 378.889 301.328 378.681C301.111 378.473 300.817 378.369 300.444 378.369C300.132 378.369 299.885 378.451 299.703 378.616C299.53 378.772 299.443 378.993 299.443 379.279C299.443 379.478 299.495 379.652 299.599 379.799C299.703 379.946 299.863 380.089 300.08 380.228C300.297 380.358 300.626 380.531 301.068 380.748L301.341 380.904C301.844 381.181 302.234 381.424 302.511 381.632C302.797 381.831 303.035 382.087 303.226 382.399C303.417 382.711 303.512 383.088 303.512 383.53C303.512 384.319 303.243 384.947 302.706 385.415C302.177 385.874 301.471 386.104 300.587 386.104Z" fill="#B1B4C5"/>
<rect width="50" height="4" rx="2" transform="matrix(-1 0 0 1 212 289)" fill="#B1B4C5"/>
<path fill-rule="evenodd" clip-rule="evenodd" d="M172.645 281.009C171.921 280.287 170.747 280.293 170.029 281.022L161.439 289.75C160.728 290.473 160.734 291.635 161.452 292.351C162.177 293.073 163.351 293.067 164.068 292.338L172.658 283.61C173.37 282.887 173.364 281.725 172.645 281.009Z" fill="#B1B4C5"/>
<path fill-rule="evenodd" clip-rule="evenodd" d="M172.645 300.991C173.364 300.275 173.369 299.113 172.658 298.39L164.068 289.662C163.35 288.933 162.177 288.927 161.452 289.649C160.734 290.365 160.728 291.527 161.439 292.249L170.029 300.978C170.747 301.707 171.92 301.713 172.645 300.991Z" fill="#B1B4C5"/>
<rect width="50" height="4" rx="2" transform="matrix(0.573576 0.819152 0.819152 -0.573576 115.449 357.849)" fill="#B1B4C5"/>
<path fill-rule="evenodd" clip-rule="evenodd" d="M131.476 394.67C131.3 395.678 131.978 396.636 132.987 396.805L145.064 398.836C146.064 399.004 147.012 398.333 147.186 397.334C147.362 396.326 146.684 395.368 145.675 395.198L133.599 393.168C132.598 393 131.65 393.671 131.476 394.67Z" fill="#B1B4C5"/>
<path fill-rule="evenodd" clip-rule="evenodd" d="M147.844 383.209C146.845 383.031 145.891 383.693 145.706 384.69L143.484 396.733C143.298 397.739 143.967 398.704 144.974 398.883C145.972 399.061 146.927 398.4 147.111 397.402L149.334 385.359C149.519 384.354 148.851 383.389 147.844 383.209Z" fill="#B1B4C5"/>
<rect x="230.449" y="398.151" width="50" height="4" rx="2" transform="rotate(-55 230.449 398.151)" fill="#B1B4C5"/>
<path fill-rule="evenodd" clip-rule="evenodd" d="M246.476 361.33C246.3 360.322 246.978 359.364 247.987 359.195L260.064 357.164C261.064 356.996 262.012 357.667 262.186 358.666C262.362 359.674 261.684 360.632 260.675 360.802L248.599 362.832C247.598 363 246.65 362.329 246.476 361.33Z" fill="#B1B4C5"/>
<path fill-rule="evenodd" clip-rule="evenodd" d="M262.844 372.791C261.845 372.969 260.891 372.307 260.706 371.31L258.484 359.267C258.298 358.261 258.967 357.296 259.974 357.117C260.972 356.939 261.927 357.6 262.111 358.598L264.334 370.641C264.519 371.646 263.851 372.611 262.844 372.791Z" fill="#B1B4C5"/>
<path d="M157.224 124C156.989 124 156.84 123.893 156.776 123.68L153.544 114.848C153.501 114.763 153.448 114.72 153.384 114.72H151.368C151.261 114.72 151.208 114.773 151.208 114.88V123.616C151.208 123.723 151.165 123.819 151.08 123.904C151.016 123.968 150.931 124 150.824 124H147.08C146.973 124 146.877 123.968 146.792 123.904C146.728 123.819 146.696 123.723 146.696 123.616V101.984C146.696 101.877 146.728 101.792 146.792 101.728C146.877 101.643 146.973 101.6 147.08 101.6H154.888C156.147 101.6 157.267 101.888 158.248 102.464C159.229 103.019 159.987 103.808 160.52 104.832C161.053 105.856 161.32 107.029 161.32 108.352C161.32 109.717 161.021 110.901 160.424 111.904C159.827 112.907 158.984 113.653 157.896 114.144C157.789 114.187 157.757 114.261 157.8 114.368L161.448 123.552C161.469 123.595 161.48 123.648 161.48 123.712C161.48 123.904 161.363 124 161.128 124H157.224ZM151.368 105.472C151.261 105.472 151.208 105.525 151.208 105.632V111.104C151.208 111.211 151.261 111.264 151.368 111.264H154.152C154.941 111.264 155.581 111.008 156.072 110.496C156.563 109.963 156.808 109.259 156.808 108.384C156.808 107.488 156.563 106.784 156.072 106.272C155.581 105.739 154.941 105.472 154.152 105.472H151.368ZM171.239 124.256C169.788 124.256 168.508 123.957 167.399 123.36C166.29 122.763 165.426 121.931 164.807 120.864C164.21 119.776 163.911 118.528 163.911 117.12V101.984C163.911 101.877 163.943 101.792 164.007 101.728C164.092 101.643 164.188 101.6 164.295 101.6H168.039C168.146 101.6 168.231 101.643 168.295 101.728C168.38 101.792 168.423 101.877 168.423 101.984V117.344C168.423 118.261 168.679 118.997 169.191 119.552C169.703 120.107 170.386 120.384 171.239 120.384C172.092 120.384 172.775 120.107 173.287 119.552C173.799 118.997 174.055 118.261 174.055 117.344V101.984C174.055 101.877 174.087 101.792 174.151 101.728C174.236 101.643 174.332 101.6 174.439 101.6H178.183C178.29 101.6 178.375 101.643 178.439 101.728C178.524 101.792 178.567 101.877 178.567 101.984V117.12C178.567 118.528 178.258 119.776 177.639 120.864C177.042 121.931 176.188 122.763 175.079 123.36C173.97 123.957 172.69 124.256 171.239 124.256ZM182.174 124C182.067 124 181.971 123.968 181.886 123.904C181.822 123.819 181.79 123.723 181.79 123.616V101.984C181.79 101.877 181.822 101.792 181.886 101.728C181.971 101.643 182.067 101.6 182.174 101.6H185.918C186.024 101.6 186.11 101.643 186.174 101.728C186.259 101.792 186.302 101.877 186.302 101.984V119.968C186.302 120.075 186.355 120.128 186.462 120.128H195.038C195.144 120.128 195.23 120.171 195.294 120.256C195.379 120.32 195.422 120.405 195.422 120.512V123.616C195.422 123.723 195.379 123.819 195.294 123.904C195.23 123.968 195.144 124 195.038 124H182.174ZM211.391 105.088C211.391 105.195 211.348 105.291 211.263 105.376C211.199 105.44 211.113 105.472 211.007 105.472H202.431C202.324 105.472 202.271 105.525 202.271 105.632V110.624C202.271 110.731 202.324 110.784 202.431 110.784H207.775C207.881 110.784 207.967 110.827 208.031 110.912C208.116 110.976 208.159 111.061 208.159 111.168V114.272C208.159 114.379 208.116 114.475 208.031 114.56C207.967 114.624 207.881 114.656 207.775 114.656H202.431C202.324 114.656 202.271 114.709 202.271 114.816V119.968C202.271 120.075 202.324 120.128 202.431 120.128H211.007C211.113 120.128 211.199 120.171 211.263 120.256C211.348 120.32 211.391 120.405 211.391 120.512V123.616C211.391 123.723 211.348 123.819 211.263 123.904C211.199 123.968 211.113 124 211.007 124H198.143C198.036 124 197.94 123.968 197.855 123.904C197.791 123.819 197.759 123.723 197.759 123.616V101.984C197.759 101.877 197.791 101.792 197.855 101.728C197.94 101.643 198.036 101.6 198.143 101.6H211.007C211.113 101.6 211.199 101.643 211.263 101.728C211.348 101.792 211.391 101.877 211.391 101.984V105.088ZM220.822 124.256C219.35 124.256 218.06 124 216.95 123.488C215.841 122.955 214.977 122.219 214.358 121.28C213.761 120.32 213.462 119.221 213.462 117.984V117.152C213.462 117.045 213.494 116.96 213.558 116.896C213.644 116.811 213.74 116.768 213.846 116.768H217.526C217.633 116.768 217.718 116.811 217.782 116.896C217.868 116.96 217.91 117.045 217.91 117.152V117.76C217.91 118.507 218.188 119.136 218.742 119.648C219.297 120.139 220.044 120.384 220.982 120.384C221.814 120.384 222.444 120.171 222.87 119.744C223.318 119.317 223.542 118.773 223.542 118.112C223.542 117.621 223.404 117.205 223.126 116.864C222.849 116.501 222.454 116.171 221.942 115.872C221.452 115.552 220.684 115.125 219.638 114.592C218.358 113.952 217.313 113.355 216.502 112.8C215.692 112.245 214.998 111.531 214.422 110.656C213.846 109.781 213.558 108.725 213.558 107.488C213.558 106.251 213.846 105.173 214.422 104.256C215.02 103.317 215.852 102.603 216.918 102.112C217.985 101.6 219.201 101.344 220.566 101.344C221.996 101.344 223.265 101.621 224.374 102.176C225.484 102.709 226.348 103.467 226.966 104.448C227.585 105.429 227.894 106.56 227.894 107.84V108.48C227.894 108.587 227.852 108.683 227.766 108.768C227.702 108.832 227.617 108.864 227.51 108.864H223.83C223.724 108.864 223.628 108.832 223.542 108.768C223.478 108.683 223.446 108.587 223.446 108.48V107.904C223.446 107.136 223.18 106.496 222.646 105.984C222.113 105.472 221.388 105.216 220.47 105.216C219.702 105.216 219.094 105.419 218.646 105.824C218.22 106.208 218.006 106.752 218.006 107.456C218.006 107.947 218.134 108.373 218.39 108.736C218.646 109.099 219.041 109.451 219.574 109.792C220.108 110.112 220.918 110.539 222.006 111.072L222.678 111.456C223.916 112.139 224.876 112.736 225.558 113.248C226.262 113.739 226.849 114.368 227.318 115.136C227.788 115.904 228.022 116.832 228.022 117.92C228.022 119.861 227.361 121.408 226.038 122.56C224.737 123.691 222.998 124.256 220.822 124.256Z" fill="#3B4262"/>
<path opacity="0.25" fill-rule="evenodd" clip-rule="evenodd" d="M197.092 667.121L194.971 665L187.546 672.425L180.121 665L178 667.121L185.425 674.546L178 681.971L180.121 684.092L187.546 676.667L194.971 684.092L197.092 681.971L189.667 674.546L197.092 667.121Z" fill="#3B4262"/>
</g>
<defs>
<filter id="filter0_d_0_1149" x="-3" y="0" width="381" height="756" filterUnits="userSpaceOnUse" color-interpolation-filters="sRGB">
<feFlood flood-opacity="0" result="BackgroundImageFix"/>
<feColorMatrix in="SourceAlpha" type="matrix" values="0 0 0 0 0 0 0 0 0 0 0 0 0 0 0 0 0 0 127 0" result="hardAlpha"/>
<feOffset dy="3"/>
<feGaussianBlur stdDeviation="1.5"/>
<feColorMatrix type="matrix" values="0 0 0 0 0 0 0 0 0 0 0 0 0 0 0 0 0 0 0.196706 0"/>
<feBlend mode="normal" in2="BackgroundImageFix" result="effect1_dropShadow_0_1149"/>
<feBlend mode="normal" in="SourceGraphic" in2="effect1_dropShadow_0_1149" result="shape"/>
</filter>
<linearGradient id="paint0_linear_0_1149" x1="35" y1="240" x2="35" y2="344.77" gradientUnits="userSpaceOnUse">
<stop stop-color="white" stop-opacity="0.0966455"/>
<stop offset="1" stop-color="white" stop-opacity="0.01"/>
</linearGradient>
<linearGradient id="paint1_linear_0_1149" x1="231" y1="240" x2="231" y2="344.77" gradientUnits="userSpaceOnUse">
<stop stop-color="white" stop-opacity="0.0966455"/>
<stop offset="1" stop-color="white" stop-opacity="0.01"/>
</linearGradient>
<linearGradient id="paint2_linear_0_1149" x1="133" y1="400" x2="133" y2="504.77" gradientUnits="userSpaceOnUse">
<stop stop-color="white" stop-opacity="0.0966455"/>
<stop offset="1" stop-color="white" stop-opacity="0.01"/>
</linearGradient>
<clipPath id="clip0_0_1149">
<rect width="375" height="750" fill="white"/>
</clipPath>
</defs>
</svg>
